<svg width="512" height="512" viewBox="0 0 512 512" fill="none" xmlns="http://www.w3.org/2000/svg">
  <path d="M32 28H260V128H132V390H260V486H32V28Z" fill="#0F2563"/>
  <path d="M284 28H356L434 106V486H284V28Z" fill="#0F2563"/>
  <path d="M106 126L102 244L158 426L392 392L410 122L336 30L94 36L106 126Z" stroke="white" stroke-width="10" stroke-linecap="round" stroke-linejoin="round"/>
  <path d="M94 48L266 40" stroke="white" stroke-width="10" stroke-linecap="round"/>
  <path d="M100 52L404 118" stroke="white" stroke-width="10" stroke-linecap="round"/>
  <path d="M264 40L404 118" stroke="white" stroke-width="10" stroke-linecap="round"/>
  <path d="M230 112L266 40" stroke="white" stroke-width="10" stroke-linecap="round"/>

  <circle cx="94" cy="48" r="20" fill="white"/>
  <circle cx="266" cy="40" r="20" fill="white"/>
  <circle cx="230" cy="112" r="20" fill="white"/>
  <circle cx="404" cy="118" r="20" fill="white"/>
  <circle cx="80" cy="244" r="20" fill="white"/>
  <circle cx="158" cy="426" r="20" fill="white"/>
  <circle cx="392" cy="392" r="20" fill="white"/>

  <path d="M436 54L452 104L504 104L462 134L478 184L436 154L394 184L410 134L368 104L420 104L436 54Z" fill="#45C3C7"/>
  <rect x="398" y="170" width="72" height="292" fill="#45C3C7"/>
</svg>
